<?xml version="1.0" encoding="utf-8"?>
<!-- Generator: Adobe Illustrator 17.0.0, SVG Export Plug-In . SVG Version: 6.00 Build 0)  -->
<!DOCTYPE svg PUBLIC "-//W3C//DTD SVG 1.1//EN" "http://www.w3.org/Graphics/SVG/1.1/DTD/svg11.dtd">
<svg version="1.1" id="Capa_1" xmlns="http://www.w3.org/2000/svg" xmlns:xlink="http://www.w3.org/1999/xlink" x="0px" y="0px"
	 width="28.75px" height="28.75px" viewBox="0 0 28.75 28.75" enable-background="new 0 0 28.75 28.75" xml:space="preserve">
<path fill="#FFFFFF" d="M27.163,0H1.587C0.71,0,0,0.71,0,1.587v25.577c0,0.876,0.71,1.586,1.587,1.586h13.77V17.617H11.61v-4.339
	h3.747v-3.2c0-3.714,2.268-5.736,5.581-5.736c1.587,0,2.95,0.119,3.348,0.171v3.881l-2.298,0.001c-1.802,0-2.15,0.857-2.15,2.112
	v2.771h4.297l-0.559,4.339h-3.737V28.75h7.326c0.874,0,1.585-0.71,1.585-1.587V1.587C28.75,0.71,28.04,0,27.163,0z"/>
</svg>
