<?xml version="1.0" encoding="utf-8"?>
<!-- Generator: Adobe Illustrator 17.0.0, SVG Export Plug-In . SVG Version: 6.00 Build 0)  -->
<!DOCTYPE svg PUBLIC "-//W3C//DTD SVG 1.1//EN" "http://www.w3.org/Graphics/SVG/1.1/DTD/svg11.dtd">
<svg version="1.1" id="Capa_1" xmlns="http://www.w3.org/2000/svg" xmlns:xlink="http://www.w3.org/1999/xlink" x="0px" y="0px"
	 width="282.197px" height="92.749px" viewBox="0 0 282.197 92.749" enable-background="new 0 0 282.197 92.749"
	 xml:space="preserve">
<g>
	<path fill="#E6C000" d="M50.045,15.534c15.42,0,30.591,3.238,45.057,9.745l0.323-0.873C81.482,15.505,65.791,10.413,50.051,9.692
		c-15.228-0.697-30.724,2.694-44.808,9.811L5,19.628l0.01,5.893l0.534-0.24C19.834,18.853,34.804,15.575,50.045,15.534"/>
	<path fill="#E6C000" d="M95.416,37.293l-0.532,0.24c-14.288,6.425-29.261,9.704-44.501,9.742c-15.42,0-30.591-3.237-45.057-9.742
		l-0.323,0.87c13.944,8.905,29.634,13.993,45.373,14.717c15.228,0.697,30.724-2.694,44.805-9.811l0.244-0.124L95.416,37.293z"/>
	<path fill="#E6C000" d="M56.646,33.11c-3.897,0-7.056-3.16-7.056-7.056s3.16-7.056,7.056-7.056c0.434,0,0.854,0.045,1.265,0.121
		c-2.088-1.209-4.508-1.907-7.095-1.907c-7.826,0-14.172,6.344-14.172,14.174s6.344,14.172,14.172,14.172S64.99,39.213,64.99,31.385
		c0-2.137-0.476-4.16-1.323-5.976c0.02,0.214,0.032,0.428,0.032,0.645C63.703,29.952,60.543,33.11,56.646,33.11"/>
	<path fill="#E6C000" d="M84.505,59.325c-6.084,0-11.018,4.931-11.018,11.018c0,4.047,2.188,7.575,5.44,9.49
		c-6.133-0.75-13.213-2.21-20.792-4.937C38.881,67.965,26.375,56.45,20.02,49.635c1.462,1.566,2.533,3.73,3.854,5.434
		c2.343,3.024,4.897,5.887,7.643,8.552c7.464,7.245,16.421,13.044,26.407,16.105c7.381,2.265,15.751,2.797,23.44,2.291
		c5.051-0.331,10.443-2.298,12.922-6.712C98.29,68.175,92.387,59.325,84.505,59.325"/>
	<path fill="#E6C000" d="M13.555,46.074c-0.4-0.005,0.285,6.722-4.012,9.921c-1.631,1.216-3.342,1.636-4.481,1.792
		c1.131,1.352,2.466,3.151,3.72,5.408c5.368,9.673,4.324,18.915,4.774,18.915C14.442,82.113,14.49,46.087,13.555,46.074"/>
	<path fill="#FFFFFF" d="M198.481,41.146h2.01c0.584,0,1.095-0.065,1.528-0.194c0.433-0.128,0.791-0.306,1.071-0.528
		s0.49-0.49,0.625-0.798c0.135-0.308,0.201-0.645,0.201-1.012c0-0.418-0.061-0.804-0.185-1.163
		c-0.124-0.357-0.326-0.665-0.604-0.922c-0.278-0.259-0.645-0.461-1.101-0.61s-1.011-0.224-1.667-0.224h-1.878L198.481,41.146
		L198.481,41.146z M198.481,34.252h2.398c0.387,0,0.732-0.061,1.034-0.18c0.303-0.119,0.559-0.287,0.766-0.507
		c0.209-0.219,0.368-0.474,0.477-0.766c0.109-0.292,0.164-0.617,0.164-0.974c0-0.387-0.071-0.742-0.209-1.063
		c-0.139-0.323-0.351-0.598-0.633-0.828c-0.285-0.229-0.643-0.408-1.079-0.537s-0.957-0.193-1.565-0.193h-1.354V34.252
		L198.481,34.252z M194.834,27.819h6.374c0.853,0,1.638,0.092,2.353,0.275c0.713,0.185,1.326,0.441,1.837,0.774
		c0.511,0.334,0.909,0.732,1.192,1.198c0.285,0.467,0.424,0.983,0.424,1.549c0,0.357-0.037,0.685-0.111,0.974
		c-0.076,0.293-0.201,0.572-0.379,0.835c-0.18,0.264-0.413,0.516-0.7,0.758c-0.287,0.244-0.645,0.49-1.071,0.737
		c0.436,0.139,0.84,0.326,1.206,0.559c0.368,0.232,0.684,0.502,0.952,0.812c0.268,0.309,0.477,0.648,0.626,1.022
		c0.149,0.372,0.221,0.771,0.221,1.198c0,0.587-0.133,1.129-0.401,1.631c-0.268,0.501-0.648,0.941-1.139,1.319
		c-0.491,0.378-1.083,0.671-1.771,0.886c-0.689,0.214-1.457,0.319-2.301,0.319h-7.311L194.834,27.819L194.834,27.819z"/>
</g>
<rect x="210.932" y="27.819" fill="#FFFFFF" width="3.633" height="14.846"/>
<g>
	<path fill="#FFFFFF" d="M223.469,42.888c-0.894,0-1.672-0.104-2.339-0.313c-0.665-0.209-1.232-0.496-1.704-0.864
		c-0.472-0.367-0.846-0.804-1.125-1.31c-0.28-0.506-0.467-1.061-0.567-1.667h2.533c0.089,0.379,0.219,0.725,0.387,1.043
		s0.383,0.595,0.639,0.835c0.259,0.237,0.564,0.424,0.916,0.557c0.353,0.135,0.762,0.201,1.229,0.201
		c0.307,0,0.612-0.032,0.916-0.097c0.303-0.065,0.573-0.17,0.812-0.321c0.24-0.149,0.433-0.342,0.582-0.582
		c0.149-0.237,0.224-0.529,0.224-0.879c0-0.436-0.116-0.828-0.342-1.17c-0.23-0.342-0.529-0.655-0.901-0.938
		c-0.373-0.285-0.795-0.544-1.265-0.791c-0.472-0.244-0.956-0.487-1.452-0.73c-0.498-0.244-0.982-0.5-1.452-0.766
		c-0.472-0.268-0.895-0.568-1.268-0.901c-0.373-0.332-0.671-0.707-0.901-1.125c-0.229-0.416-0.342-0.897-0.342-1.442
		c0-0.587,0.127-1.132,0.387-1.638c0.257-0.507,0.633-0.943,1.125-1.31c0.491-0.367,1.09-0.655,1.796-0.863
		c0.705-0.209,1.508-0.313,2.413-0.313c0.746,0,1.419,0.106,2.026,0.313c0.605,0.209,1.139,0.49,1.601,0.848
		c0.461,0.357,0.851,0.779,1.17,1.265c0.318,0.487,0.562,1.007,0.731,1.562h-2.293c-0.128-0.357-0.281-0.694-0.455-1.012
		c-0.174-0.318-0.39-0.598-0.649-0.835c-0.259-0.24-0.568-0.429-0.93-0.572c-0.363-0.144-0.798-0.216-1.304-0.216
		c-0.477,0-0.875,0.062-1.198,0.186c-0.323,0.124-0.584,0.285-0.782,0.477c-0.199,0.194-0.342,0.408-0.433,0.639
		c-0.089,0.232-0.135,0.464-0.135,0.692c0,0.398,0.117,0.758,0.351,1.081c0.232,0.321,0.542,0.621,0.924,0.892
		c0.383,0.273,0.819,0.537,1.31,0.788c0.491,0.252,0.989,0.51,1.497,0.766c0.506,0.259,1.004,0.526,1.495,0.804
		c0.491,0.278,0.928,0.584,1.31,0.922c0.383,0.339,0.689,0.711,0.924,1.116c0.232,0.408,0.351,0.869,0.351,1.386
		c0,0.605-0.126,1.17-0.373,1.689c-0.247,0.521-0.619,0.973-1.11,1.354c-0.491,0.383-1.098,0.682-1.817,0.901
		C225.258,42.779,224.421,42.888,223.469,42.888"/>
</g>
<polygon fill="#FFFFFF" points="232.314,27.819 235.963,27.819 235.963,41.146 243.541,41.146 243.541,42.666 232.314,42.666 "/>
<g>
	<path fill="#FFFFFF" d="M253.593,41.742c0.725,0,1.362-0.164,1.913-0.491c0.551-0.328,1.013-0.787,1.385-1.378
		c0.373-0.589,0.655-1.288,0.848-2.093c0.194-0.804,0.29-1.682,0.29-2.636c0-0.933-0.097-1.792-0.29-2.577s-0.477-1.458-0.848-2.026
		c-0.372-0.566-0.834-1.004-1.385-1.318c-0.551-0.313-1.188-0.469-1.913-0.469c-0.736,0-1.376,0.158-1.928,0.469
		c-0.551,0.313-1.017,0.752-1.392,1.318c-0.379,0.567-0.66,1.243-0.85,2.026c-0.188,0.784-0.282,1.643-0.282,2.577
		c0,0.952,0.093,1.831,0.282,2.636c0.189,0.804,0.471,1.502,0.85,2.093c0.375,0.592,0.84,1.05,1.392,1.378
		C252.217,41.58,252.858,41.742,253.593,41.742 M253.593,42.992c-1.202,0-2.318-0.193-3.351-0.582
		c-1.033-0.387-1.928-0.928-2.689-1.622c-0.758-0.696-1.359-1.521-1.796-2.48c-0.438-0.956-0.654-2.012-0.654-3.162
		c0-1.132,0.219-2.165,0.654-3.099c0.438-0.933,1.037-1.738,1.796-2.411c0.759-0.676,1.656-1.198,2.689-1.571
		c1.033-0.374,2.149-0.559,3.351-0.559c1.191,0,2.304,0.189,3.344,0.567c1.037,0.378,1.935,0.901,2.695,1.571
		c0.758,0.67,1.357,1.472,1.796,2.405c0.436,0.933,0.654,1.956,0.654,3.068c0,1.181-0.219,2.255-0.654,3.222
		c-0.438,0.968-1.037,1.797-1.796,2.488c-0.759,0.689-1.659,1.224-2.695,1.601C255.898,42.805,254.783,42.992,253.593,42.992"/>
	<path fill="#FFFFFF" d="M268.602,34.831h1.192c0.416,0,0.779-0.073,1.088-0.221c0.308-0.149,0.564-0.353,0.766-0.61
		c0.204-0.259,0.355-0.553,0.455-0.886c0.099-0.332,0.149-0.686,0.149-1.063c0-0.446-0.066-0.841-0.201-1.183
		c-0.133-0.342-0.314-0.633-0.543-0.87c-0.229-0.24-0.498-0.419-0.812-0.544c-0.313-0.124-0.649-0.186-1.004-0.186h-1.089
		L268.602,34.831L268.602,34.831z M264.939,27.819h5.182c0.835,0,1.615,0.089,2.339,0.268c0.725,0.178,1.356,0.441,1.891,0.788
		c0.537,0.347,0.958,0.782,1.268,1.303c0.307,0.521,0.461,1.129,0.461,1.825c0,0.705-0.153,1.319-0.455,1.84
		c-0.303,0.521-0.705,0.956-1.206,1.303s-1.071,0.607-1.713,0.781c-0.639,0.174-1.293,0.26-1.96,0.26h-2.144v6.478h-3.662
		L264.939,27.819L264.939,27.819z"/>
	<path fill="#FFFFFF" d="M122.178,29.031c-0.881,0-1.694,0.158-2.434,0.469c-0.74,0.311-1.376,0.757-1.912,1.331
		c-0.537,0.575-0.952,1.272-1.249,2.092c-0.298,0.818-0.449,1.738-0.449,2.759s0.16,1.942,0.484,2.759
		c0.323,0.819,0.766,1.516,1.331,2.092c0.566,0.577,1.229,1.02,1.994,1.331c0.763,0.313,1.587,0.469,2.469,0.469
		c0.636,0,1.208-0.087,1.719-0.26c0.511-0.174,0.968-0.419,1.376-0.737v-5.087h-2.738v-0.863h5.178v6.383
		c-0.425,0.229-0.856,0.429-1.286,0.603c-0.433,0.174-0.895,0.321-1.392,0.44c-0.495,0.119-1.043,0.209-1.643,0.267
		c-0.6,0.06-1.277,0.089-2.03,0.089c-1.199,0-2.309-0.198-3.325-0.594c-1.017-0.395-1.894-0.935-2.634-1.615
		c-0.738-0.68-1.315-1.473-1.733-2.38c-0.416-0.909-0.625-1.871-0.625-2.895c0-1.022,0.198-1.996,0.594-2.923
		c0.397-0.927,0.956-1.746,1.674-2.455c0.72-0.71,1.577-1.272,2.574-1.689c0.996-0.416,2.101-0.625,3.31-0.625
		c0.763,0,1.472,0.104,2.127,0.313c0.655,0.208,1.252,0.482,1.785,0.825c0.537,0.342,1.012,0.738,1.428,1.191
		c0.416,0.452,0.774,0.922,1.071,1.407l-1.055,0.699c-0.617-1.18-1.295-2.04-2.038-2.582
		C124.009,29.3,123.149,29.031,122.178,29.031"/>
	<path fill="#FFFFFF" d="M133.77,35.28h1.413c0.544,0,1.05-0.072,1.516-0.216c0.466-0.143,0.868-0.348,1.206-0.617
		c0.336-0.268,0.599-0.593,0.787-0.974c0.188-0.38,0.285-0.812,0.285-1.286c0-0.435-0.076-0.835-0.224-1.198
		c-0.149-0.362-0.359-0.675-0.631-0.938c-0.273-0.262-0.598-0.466-0.974-0.61c-0.378-0.144-0.787-0.215-1.236-0.215h-2.14
		L133.77,35.28L133.77,35.28z M131.329,28.316h5.029c0.873,0,1.637,0.093,2.291,0.285c0.655,0.186,1.199,0.449,1.637,0.781
		c0.436,0.331,0.766,0.731,0.989,1.197c0.224,0.467,0.334,0.973,0.334,1.519c0,0.456-0.083,0.88-0.252,1.272
		c-0.169,0.392-0.408,0.747-0.721,1.063c-0.313,0.318-0.687,0.592-1.125,0.819c-0.436,0.229-0.919,0.408-1.442,0.537l5.281,7.036
		h-2.827l-5.044-6.814h-1.71v6.814h-2.441L131.329,28.316L131.329,28.316z"/>
	<path fill="#FFFFFF" d="M144.601,28.316h2.44v9.419c0,0.615,0.106,1.194,0.321,1.741c0.213,0.544,0.516,1.022,0.907,1.428
		c0.39,0.406,0.868,0.727,1.428,0.967c0.561,0.237,1.182,0.357,1.867,0.357c0.694,0,1.319-0.119,1.874-0.357
		c0.556-0.24,1.027-0.561,1.413-0.967c0.387-0.408,0.685-0.881,0.892-1.428c0.209-0.546,0.313-1.126,0.313-1.741v-9.419h1.071v9.419
		c0,0.743-0.122,1.442-0.363,2.098c-0.244,0.655-0.621,1.231-1.131,1.725c-0.511,0.496-1.17,0.886-1.973,1.176
		c-0.804,0.287-1.766,0.43-2.886,0.43c-1.002,0-1.887-0.144-2.655-0.43c-0.769-0.287-1.413-0.682-1.934-1.182
		c-0.521-0.501-0.916-1.084-1.183-1.749c-0.268-0.665-0.401-1.373-0.401-2.127L144.601,28.316L144.601,28.316z"/>
	<path fill="#FFFFFF" d="M162.947,35.293c0.276,0.078,0.576,0.154,0.892,0.224s0.634,0.104,0.952,0.104
		c0.526,0,0.984-0.078,1.376-0.237c0.39-0.159,0.718-0.374,0.982-0.648c0.264-0.273,0.461-0.593,0.589-0.961
		c0.128-0.367,0.193-0.758,0.193-1.176c0-0.487-0.083-0.927-0.252-1.324c-0.17-0.397-0.4-0.735-0.692-1.012
		c-0.292-0.278-0.638-0.495-1.034-0.648c-0.398-0.153-0.824-0.231-1.28-0.231h-1.725L162.947,35.293L162.947,35.293z
		 M160.505,28.316h4.596c0.753,0,1.463,0.092,2.128,0.275c0.664,0.185,1.243,0.45,1.733,0.803c0.491,0.353,0.879,0.787,1.161,1.303
		c0.281,0.516,0.423,1.105,0.423,1.77c0,0.654-0.137,1.227-0.408,1.719c-0.273,0.49-0.631,0.895-1.078,1.213
		c-0.449,0.317-0.956,0.556-1.526,0.713c-0.571,0.159-1.153,0.24-1.748,0.24c-0.259,0-0.523-0.007-0.795-0.022
		c-0.273-0.016-0.538-0.032-0.796-0.053c-0.259-0.02-0.496-0.045-0.713-0.073c-0.219-0.031-0.396-0.06-0.534-0.089v6.711h-2.441
		V28.318C160.509,28.316,160.505,28.316,160.505,28.316z"/>
	<path fill="#FFFFFF" d="M180.057,42.437c0.832,0,1.567-0.174,2.203-0.521c0.634-0.347,1.171-0.829,1.608-1.442
		c0.435-0.615,0.766-1.351,0.988-2.203c0.224-0.853,0.336-1.78,0.336-2.783c0-0.991-0.112-1.903-0.336-2.737
		c-0.221-0.834-0.553-1.55-0.988-2.15c-0.438-0.599-0.973-1.065-1.608-1.397c-0.635-0.332-1.37-0.498-2.203-0.498
		c-0.843,0-1.587,0.165-2.231,0.498c-0.646,0.332-1.183,0.798-1.615,1.397c-0.433,0.6-0.757,1.318-0.974,2.15
		c-0.219,0.834-0.328,1.746-0.328,2.737c0,1.004,0.111,1.929,0.328,2.783c0.219,0.853,0.543,1.587,0.974,2.203
		c0.43,0.615,0.968,1.095,1.615,1.442C178.468,42.264,179.213,42.437,180.057,42.437 M180.057,43.166
		c-1.121,0-2.17-0.201-3.147-0.603c-0.977-0.403-1.825-0.952-2.546-1.651c-0.718-0.7-1.284-1.513-1.697-2.441
		c-0.413-0.927-0.617-1.922-0.617-2.983c0-1.04,0.205-2.017,0.617-2.93c0.413-0.914,0.977-1.705,1.697-2.38
		c0.72-0.676,1.567-1.208,2.546-1.601c0.977-0.39,2.026-0.588,3.147-0.588c1.121,0,2.17,0.198,3.147,0.588
		c0.977,0.392,1.825,0.925,2.544,1.601c0.718,0.675,1.285,1.467,1.697,2.38c0.411,0.914,0.619,1.891,0.619,2.93
		c0,1.061-0.208,2.056-0.619,2.983c-0.413,0.928-0.977,1.741-1.697,2.441c-0.72,0.699-1.567,1.249-2.544,1.651
		C182.225,42.964,181.178,43.166,180.057,43.166"/>
</g>
<rect x="113.283" y="46.673" fill="#E6C000" width="162.846" height="3.303"/>
<g>
	<path fill="#FFFFFF" d="M113.533,64.024v-3.32h0.383c0.43,2.162,1.453,3.244,3.068,3.244c0.725,0,1.286-0.208,1.685-0.621
		c0.399-0.414,0.598-0.878,0.598-1.39c0-0.518-0.176-0.952-0.526-1.301c-0.351-0.346-0.989-0.716-1.919-1.111
		c-0.828-0.355-1.452-0.666-1.873-0.933c-0.421-0.267-0.75-0.612-0.986-1.038c-0.236-0.428-0.355-0.88-0.355-1.362
		c0-0.737,0.255-1.351,0.766-1.84c0.511-0.49,1.156-0.735,1.937-0.735c0.436,0,0.848,0.071,1.233,0.214
		c0.385,0.143,0.781,0.436,1.187,0.885c0.235-0.28,0.367-0.582,0.397-0.906h0.334v2.703h-0.334
		c-0.193-0.787-0.534-1.406-1.024-1.858s-1.059-0.677-1.703-0.677c-0.614,0-1.065,0.165-1.351,0.498
		c-0.287,0.332-0.43,0.697-0.43,1.093c0,0.477,0.18,0.88,0.541,1.211c0.355,0.336,0.997,0.711,1.928,1.127
		c0.886,0.395,1.534,0.713,1.937,0.956c0.403,0.241,0.727,0.575,0.971,1.002c0.244,0.425,0.367,0.919,0.367,1.477
		c0,0.885-0.296,1.601-0.881,2.155c-0.589,0.554-1.375,0.83-2.359,0.83c-1.132,0-2.077-0.434-2.834-1.303
		c-0.167,0.24-0.292,0.573-0.373,1.006C113.914,64.024,113.533,64.024,113.533,64.024z"/>
	<path fill="#FFFFFF" d="M129.979,60.918h0.367l-0.22,3.213h-8.552V63.78h0.214c0.512,0,0.845-0.067,0.994-0.205
		c0.149-0.137,0.244-0.312,0.286-0.522c0.04-0.21,0.061-0.747,0.061-1.61V56.38c0-0.787-0.022-1.304-0.065-1.554
		c-0.044-0.247-0.143-0.423-0.297-0.522c-0.154-0.098-0.482-0.149-0.979-0.149v-0.351h7.377l0.244,2.573h-0.358
		c-0.163-0.72-0.362-1.232-0.598-1.534c-0.235-0.302-0.516-0.491-0.84-0.571c-0.326-0.078-0.848-0.119-1.57-0.119h-1.433v4.334
		h1.098c0.502,0,0.853-0.044,1.054-0.128c0.201-0.087,0.334-0.219,0.397-0.392c0.062-0.177,0.094-0.516,0.094-1.024h0.358v3.534
		h-0.358c0-0.573-0.048-0.958-0.144-1.155c-0.097-0.194-0.236-0.321-0.421-0.38c-0.186-0.058-0.5-0.087-0.941-0.087h-1.134V61.3
		c0,1.224,0.078,1.944,0.236,2.159c0.158,0.215,0.582,0.323,1.272,0.323h0.769c0.543,0,0.989-0.07,1.34-0.209
		c0.351-0.139,0.685-0.428,1.001-0.861C129.546,62.276,129.797,61.678,129.979,60.918"/>
	<path fill="#FFFFFF" d="M138.02,59.722h4.454v0.367c-0.493,0-0.828,0.05-1.001,0.149c-0.176,0.099-0.292,0.264-0.347,0.495
		c-0.056,0.231-0.083,0.792-0.083,1.678v1.098c-0.122-0.02-0.231-0.031-0.328-0.031c-0.39,0-0.902,0.119-1.538,0.358
		c-0.863,0.324-1.664,0.487-2.398,0.487c-1.478,0-2.705-0.487-3.687-1.458c-0.979-0.973-1.469-2.204-1.469-3.698
		c0-1.478,0.467-2.771,1.401-3.884c0.933-1.111,2.203-1.667,3.807-1.667c1.381,0,2.523,0.507,3.426,1.523
		c0.167-0.355,0.275-0.741,0.319-1.15h0.367v3.448h-0.367c-0.147-1.06-0.549-1.9-1.206-2.521c-0.658-0.619-1.456-0.93-2.393-0.93
		c-0.968,0-1.815,0.362-2.536,1.083c-0.72,0.721-1.081,2-1.081,3.837c0,1.832,0.347,3.131,1.043,3.893
		c0.696,0.764,1.557,1.145,2.588,1.145c0.528,0,1.009-0.108,1.439-0.323c0.433-0.215,0.727-0.479,0.885-0.787
		c0.158-0.309,0.235-0.7,0.235-1.172c0-0.554-0.037-0.922-0.111-1.109c-0.073-0.185-0.186-0.309-0.339-0.374
		c-0.153-0.062-0.433-0.094-0.839-0.094h-0.244L138.02,59.722L138.02,59.722z"/>
	<path fill="#FFFFFF" d="M151.084,53.807h3.448v0.351c-0.456,0.031-0.798,0.133-1.024,0.308c-0.226,0.176-0.363,0.373-0.414,0.589
		c-0.051,0.219-0.076,0.643-0.076,1.272v3.434c0,0.879-0.034,1.529-0.103,1.956c-0.07,0.428-0.267,0.845-0.593,1.257
		c-0.328,0.411-0.787,0.738-1.381,0.982c-0.594,0.244-1.28,0.367-2.056,0.367c-0.919,0-1.697-0.158-2.332-0.469
		c-0.638-0.313-1.09-0.716-1.362-1.211c-0.271-0.495-0.408-1.158-0.408-1.99l0.007-1.059V56.38c0-0.823-0.024-1.352-0.071-1.59
		c-0.05-0.24-0.15-0.403-0.306-0.495s-0.493-0.137-1.017-0.137h-0.236v-0.351h4.715v0.351h-0.209c-0.507,0-0.84,0.042-0.997,0.126
		c-0.157,0.083-0.262,0.24-0.317,0.469c-0.053,0.226-0.078,0.771-0.078,1.628v3.252c0,1.127,0.051,1.925,0.155,2.398
		c0.104,0.472,0.397,0.885,0.879,1.237c0.482,0.353,1.125,0.528,1.928,0.528c0.63,0,1.202-0.119,1.717-0.355
		c0.516-0.235,0.897-0.53,1.15-0.881c0.252-0.353,0.405-0.716,0.461-1.089c0.056-0.374,0.083-0.961,0.083-1.764v-3.518
		c0-0.584-0.032-0.993-0.098-1.226c-0.066-0.235-0.209-0.419-0.428-0.557c-0.219-0.137-0.564-0.22-1.034-0.251v-0.348
		L151.084,53.807L151.084,53.807z"/>
	<path fill="#FFFFFF" d="M158.403,58.8c0.38-0.01,0.774-0.024,1.18-0.045c0.405-0.02,0.758-0.076,1.057-0.167
		c0.301-0.089,0.543-0.224,0.727-0.4c0.185-0.176,0.331-0.405,0.436-0.689c0.106-0.285,0.159-0.633,0.159-1.05
		c0-0.726-0.181-1.308-0.544-1.744c-0.362-0.436-1.153-0.654-2.37-0.654c-0.188,0-0.403,0.011-0.648,0.031v4.72h0.004V58.8z
		 M166.208,64.131h-2.779c-0.491-0.346-1.244-1.249-2.261-2.71c-0.326-0.467-0.664-0.916-1.013-1.345
		c-0.351-0.429-0.589-0.691-0.723-0.784c-0.132-0.093-0.339-0.139-0.617-0.139h-0.411v2.291c0,0.813,0.02,1.345,0.056,1.595
		c0.039,0.251,0.139,0.436,0.306,0.559c0.167,0.123,0.482,0.183,0.947,0.183h0.495v0.351h-4.941V63.78h0.334
		c0.441,0,0.748-0.056,0.919-0.167c0.17-0.111,0.28-0.286,0.324-0.522c0.045-0.235,0.07-0.784,0.07-1.648v-5.063
		c0-0.823-0.024-1.352-0.07-1.59c-0.045-0.24-0.149-0.403-0.306-0.495c-0.158-0.092-0.498-0.137-1.02-0.137h-0.176v-0.351
		l1.478-0.076c0.984-0.045,1.766-0.067,2.345-0.067c0.984,0,1.785,0.089,2.401,0.273c0.617,0.183,1.116,0.482,1.495,0.897
		c0.38,0.416,0.572,0.914,0.572,1.493c0,0.676-0.251,1.252-0.747,1.728c-0.496,0.477-1.227,0.774-2.193,0.89
		c0.433,0.209,1.127,0.958,2.087,2.253c0.782,1.05,1.396,1.738,1.842,2.065c0.446,0.324,0.974,0.496,1.584,0.517v0.348
		C166.206,64.131,166.208,64.131,166.208,64.131z"/>
	<path fill="#FFFFFF" d="M166.641,54.156v-0.351h4.721v0.351h-0.22c-0.507,0-0.84,0.042-0.997,0.126
		c-0.158,0.083-0.264,0.24-0.318,0.469c-0.053,0.226-0.078,0.771-0.078,1.628v5.063c0,0.813,0.02,1.345,0.058,1.595
		c0.039,0.251,0.139,0.436,0.306,0.559c0.164,0.124,0.48,0.185,0.947,0.185h0.306v0.351h-4.721V63.78h0.306
		c0.441,0,0.748-0.056,0.919-0.167c0.17-0.111,0.278-0.286,0.323-0.522c0.045-0.235,0.07-0.784,0.07-1.648v-5.063
		c0-0.823-0.024-1.352-0.07-1.59c-0.045-0.24-0.148-0.403-0.306-0.495c-0.158-0.092-0.498-0.137-1.022-0.137L166.641,54.156
		L166.641,54.156z"/>
	<path fill="#FFFFFF" d="M175.305,54.104v6.898c0,1.02,0.02,1.677,0.058,1.973c0.039,0.296,0.153,0.501,0.342,0.621
		c0.191,0.119,0.593,0.178,1.206,0.178c0.9,0,1.638-0.124,2.216-0.369c0.578-0.247,1.063-0.732,1.451-1.456
		c0.389-0.723,0.583-1.644,0.583-2.768c0-0.874-0.114-1.651-0.339-2.337c-0.226-0.686-0.549-1.243-0.971-1.672
		s-0.886-0.721-1.401-0.875c-0.515-0.154-1.171-0.232-1.973-0.232C176.092,54.064,175.701,54.078,175.305,54.104 M172.123,53.89
		l1.698-0.083c1.417-0.071,2.37-0.106,2.864-0.106c1.533,0,2.727,0.232,3.587,0.7c0.858,0.467,1.495,1.1,1.914,1.9
		c0.419,0.8,0.63,1.722,0.63,2.768c0,0.758-0.116,1.449-0.342,2.076c-0.23,0.626-0.543,1.148-0.941,1.561
		c-0.398,0.413-0.861,0.73-1.386,0.945c-0.523,0.215-1.023,0.351-1.495,0.403c-0.472,0.053-1.137,0.078-1.994,0.078h-4.577v-0.351
		h0.425c0.441,0,0.748-0.056,0.919-0.169c0.17-0.111,0.28-0.286,0.326-0.521c0.05-0.235,0.072-0.786,0.072-1.648v-4.981
		c0-0.823-0.024-1.354-0.072-1.595c-0.048-0.241-0.149-0.406-0.303-0.495c-0.155-0.089-0.495-0.132-1.017-0.132h-0.306
		L172.123,53.89L172.123,53.89z"/>
	<path fill="#FFFFFF" d="M189.201,59.98l-1.828-4.401l-1.82,4.401H189.201z M189.331,60.322h-3.92l-0.268,0.655
		c-0.395,0.95-0.594,1.57-0.594,1.858c0,0.309,0.106,0.544,0.318,0.705c0.21,0.159,0.48,0.24,0.812,0.24v0.351h-3.068V63.78
		c0.456-0.071,0.795-0.231,1.022-0.484c0.224-0.252,0.491-0.781,0.807-1.587c0.026-0.076,0.148-0.372,0.367-0.885l3.001-7.163h0.296
		l3.45,8.2l0.472,1.081c0.106,0.244,0.249,0.435,0.429,0.575c0.18,0.139,0.45,0.227,0.812,0.264v0.351h-4.06v-0.351
		c0.498,0,0.834-0.037,1.009-0.111c0.176-0.073,0.262-0.219,0.262-0.436c0-0.112-0.116-0.445-0.351-0.997L189.331,60.322z"/>
	<path fill="#FFFFFF" d="M196.709,54.104v6.898c0,1.02,0.02,1.677,0.058,1.973c0.039,0.296,0.153,0.501,0.342,0.621
		c0.191,0.119,0.593,0.178,1.206,0.178c0.9,0,1.638-0.124,2.216-0.369c0.578-0.247,1.063-0.732,1.451-1.456
		c0.389-0.723,0.583-1.644,0.583-2.768c0-0.874-0.114-1.651-0.339-2.337c-0.226-0.686-0.549-1.243-0.971-1.672
		s-0.889-0.721-1.401-0.875c-0.515-0.154-1.171-0.232-1.973-0.232C197.496,54.064,197.105,54.078,196.709,54.104 M193.527,53.89
		l1.698-0.083c1.417-0.071,2.37-0.106,2.864-0.106c1.533,0,2.727,0.232,3.587,0.7c0.858,0.467,1.495,1.1,1.914,1.9
		c0.419,0.8,0.63,1.722,0.63,2.768c0,0.758-0.116,1.449-0.342,2.076c-0.23,0.626-0.543,1.148-0.941,1.561
		c-0.398,0.413-0.861,0.73-1.386,0.945c-0.523,0.215-1.023,0.351-1.495,0.403c-0.472,0.053-1.137,0.078-1.994,0.078h-4.577v-0.351
		h0.425c0.441,0,0.748-0.056,0.919-0.169c0.17-0.111,0.28-0.286,0.326-0.521c0.05-0.235,0.072-0.786,0.072-1.648v-4.981
		c0-0.823-0.024-1.354-0.072-1.595c-0.048-0.241-0.149-0.406-0.306-0.495c-0.154-0.089-0.495-0.132-1.017-0.132h-0.306
		L193.527,53.89L193.527,53.89z"/>
	<path fill="#FFFFFF" d="M212.501,58.892h0.738c0.593,0,1.075-0.06,1.439-0.178c0.367-0.119,0.671-0.369,0.914-0.75
		c0.244-0.38,0.367-0.851,0.367-1.408c0-0.853-0.21-1.479-0.63-1.878c-0.418-0.398-1.098-0.598-2.035-0.598
		c-0.347,0-0.61,0.01-0.792,0.031v4.782C212.502,58.892,212.501,58.892,212.501,58.892z M212.501,59.272v2.17
		c0,0.812,0.02,1.345,0.058,1.595c0.037,0.252,0.139,0.436,0.308,0.559c0.167,0.122,0.482,0.183,0.945,0.183h0.342v0.352h-4.727
		v-0.352h0.275c0.441,0,0.747-0.055,0.916-0.167c0.17-0.111,0.28-0.286,0.324-0.522c0.045-0.235,0.067-0.784,0.067-1.648V56.38
		c0-0.823-0.022-1.354-0.067-1.59c-0.045-0.24-0.148-0.403-0.306-0.495c-0.158-0.092-0.498-0.137-1.02-0.137h-0.191v-0.351
		l1.293-0.046c1.037-0.035,1.842-0.053,2.42-0.053c1.066,0,1.887,0.083,2.464,0.251c0.577,0.169,1.049,0.464,1.417,0.89
		c0.368,0.428,0.551,0.963,0.551,1.615c0,0.564-0.126,1.061-0.375,1.493c-0.252,0.43-0.612,0.758-1.083,0.982
		c-0.469,0.224-1.296,0.334-2.478,0.334L212.501,59.272L212.501,59.272z"/>
	<path fill="#FFFFFF" d="M221.219,58.8c0.38-0.01,0.774-0.024,1.18-0.045c0.405-0.02,0.758-0.076,1.059-0.167
		c0.301-0.089,0.543-0.224,0.726-0.4c0.185-0.176,0.331-0.405,0.436-0.689c0.106-0.285,0.159-0.633,0.159-1.05
		c0-0.726-0.181-1.308-0.544-1.744c-0.362-0.436-1.153-0.654-2.37-0.654c-0.188,0-0.403,0.011-0.648,0.031L221.219,58.8
		L221.219,58.8z M229.022,64.131h-2.779c-0.491-0.346-1.244-1.249-2.261-2.71c-0.326-0.467-0.664-0.916-1.013-1.345
		c-0.351-0.429-0.592-0.691-0.725-0.784c-0.133-0.093-0.339-0.139-0.617-0.139h-0.41v2.291c0,0.813,0.019,1.345,0.056,1.595
		c0.039,0.251,0.139,0.436,0.306,0.559c0.165,0.122,0.48,0.183,0.947,0.183h0.495v0.351h-4.941V63.78h0.334
		c0.441,0,0.748-0.056,0.919-0.167c0.17-0.111,0.28-0.286,0.324-0.522c0.045-0.235,0.067-0.784,0.067-1.648v-5.063
		c0-0.823-0.024-1.352-0.067-1.59c-0.045-0.24-0.149-0.403-0.306-0.495c-0.158-0.092-0.498-0.137-1.02-0.137h-0.176v-0.351
		l1.478-0.076c0.984-0.045,1.766-0.067,2.345-0.067c0.984,0,1.785,0.089,2.401,0.273c0.617,0.183,1.116,0.482,1.495,0.897
		c0.38,0.416,0.572,0.914,0.572,1.493c0,0.676-0.249,1.252-0.747,1.728c-0.496,0.477-1.227,0.774-2.193,0.89
		c0.433,0.209,1.127,0.958,2.087,2.253c0.782,1.05,1.396,1.738,1.842,2.065c0.449,0.324,0.974,0.496,1.584,0.517L229.022,64.131
		L229.022,64.131z"/>
	<path fill="#FFFFFF" d="M229.457,54.156v-0.351h4.721v0.351h-0.22c-0.507,0-0.84,0.042-0.997,0.126
		c-0.158,0.083-0.264,0.24-0.318,0.469c-0.053,0.226-0.078,0.771-0.078,1.628v5.063c0,0.813,0.02,1.345,0.058,1.595
		c0.039,0.251,0.139,0.436,0.306,0.559c0.164,0.124,0.48,0.185,0.947,0.185h0.306v0.351h-4.721V63.78h0.306
		c0.441,0,0.748-0.056,0.919-0.167c0.17-0.111,0.278-0.286,0.323-0.522c0.045-0.235,0.07-0.784,0.07-1.648v-5.063
		c0-0.823-0.022-1.352-0.07-1.59c-0.045-0.24-0.148-0.403-0.306-0.495s-0.498-0.137-1.022-0.137L229.457,54.156L229.457,54.156z"/>
	<path fill="#FFFFFF" d="M240.649,64.374h-0.472l-3.565-8.207c-0.066-0.148-0.17-0.401-0.312-0.762
		c-0.198-0.488-0.406-0.814-0.625-0.982c-0.219-0.167-0.571-0.255-1.059-0.267v-0.351h4.447v0.351c-0.554,0-0.927,0.042-1.116,0.122
		c-0.191,0.082-0.286,0.236-0.286,0.464c0,0.148,0.119,0.493,0.357,1.037l2.969,6.852l2.382-5.704
		c0.401-0.952,0.603-1.576,0.603-1.864c0-0.583-0.413-0.885-1.24-0.906v-0.351h3.153v0.351c-0.319,0.011-0.603,0.126-0.845,0.342
		c-0.244,0.219-0.455,0.537-0.633,0.958l-0.692,1.622L240.649,64.374z"/>
	<path fill="#FFFFFF" d="M250.668,59.98l-1.828-4.401l-1.82,4.401H250.668z M250.798,60.322h-3.92l-0.267,0.655
		c-0.395,0.95-0.594,1.57-0.594,1.858c0,0.309,0.106,0.544,0.318,0.705c0.21,0.159,0.48,0.24,0.812,0.24v0.351h-3.068V63.78
		c0.456-0.071,0.796-0.231,1.02-0.484c0.224-0.252,0.493-0.781,0.808-1.587c0.026-0.076,0.148-0.372,0.367-0.885l3.001-7.163h0.296
		l3.45,8.2l0.472,1.081c0.106,0.244,0.251,0.435,0.429,0.575c0.18,0.139,0.45,0.227,0.812,0.264v0.351h-4.06v-0.351
		c0.498,0,0.834-0.037,1.009-0.111c0.176-0.073,0.262-0.219,0.262-0.436c0-0.112-0.116-0.445-0.351-0.997L250.798,60.322z"/>
	<path fill="#FFFFFF" d="M258.176,54.104v6.898c0,1.02,0.02,1.677,0.058,1.973c0.039,0.296,0.153,0.501,0.342,0.621
		c0.191,0.119,0.593,0.178,1.207,0.178c0.897,0,1.637-0.124,2.215-0.369c0.578-0.247,1.063-0.732,1.451-1.456
		c0.389-0.723,0.583-1.644,0.583-2.768c0-0.874-0.114-1.651-0.339-2.337c-0.226-0.686-0.549-1.243-0.971-1.672
		c-0.421-0.429-0.886-0.721-1.401-0.875c-0.515-0.154-1.171-0.232-1.973-0.232C258.963,54.064,258.574,54.078,258.176,54.104
		 M254.994,53.89l1.698-0.083c1.417-0.071,2.37-0.106,2.864-0.106c1.533,0,2.727,0.232,3.587,0.7c0.858,0.467,1.495,1.1,1.914,1.9
		c0.419,0.8,0.63,1.722,0.63,2.768c0,0.758-0.116,1.449-0.342,2.076c-0.23,0.626-0.543,1.148-0.941,1.561
		c-0.398,0.413-0.861,0.73-1.386,0.945c-0.523,0.215-1.023,0.351-1.495,0.403c-0.472,0.052-1.137,0.078-1.994,0.078h-4.577v-0.351
		h0.425c0.441,0,0.748-0.056,0.919-0.169c0.17-0.111,0.28-0.286,0.326-0.521c0.05-0.235,0.072-0.786,0.072-1.648v-4.981
		c0-0.823-0.024-1.354-0.072-1.595c-0.048-0.241-0.149-0.406-0.306-0.495c-0.154-0.089-0.493-0.132-1.017-0.132h-0.306
		L254.994,53.89L254.994,53.89z"/>
	<path fill="#FFFFFF" d="M272.071,59.98l-1.828-4.401l-1.82,4.401H272.071z M272.203,60.322h-3.92l-0.267,0.655
		c-0.395,0.95-0.594,1.57-0.594,1.858c0,0.309,0.106,0.544,0.318,0.705c0.21,0.159,0.48,0.24,0.812,0.24v0.351h-3.068V63.78
		c0.456-0.071,0.796-0.231,1.022-0.484c0.221-0.252,0.491-0.781,0.807-1.587c0.026-0.076,0.148-0.372,0.367-0.885l3.001-7.163h0.296
		l3.45,8.2l0.472,1.081c0.106,0.244,0.251,0.435,0.429,0.575c0.18,0.139,0.45,0.227,0.812,0.264v0.351h-4.06v-0.351
		c0.498,0,0.834-0.037,1.009-0.111c0.176-0.073,0.262-0.219,0.262-0.436c0-0.112-0.116-0.445-0.351-0.997L272.203,60.322z"/>
</g>
</svg>
